<svg width="24" height="22" viewBox="0 0 24 22" fill="none" xmlns="http://www.w3.org/2000/svg">
<path d="M0.133334 17.6667C0.0596961 17.6667 0 17.7264 0 17.8V20.2C0 20.2736 0.0596954 20.3333 0.133333 20.3333H14.6667V17.6667H0.133334ZM0.133334 1.66667C0.0596957 1.66667 0 1.72636 0 1.8V4.2C0 4.27364 0.0596954 4.33334 0.133333 4.33334H12V1.66667H0.133334ZM20 20.3333H23.8667C23.9403 20.3333 24 20.2736 24 20.2V17.8C24 17.7264 23.9403 17.6667 23.8667 17.6667H20V20.3333ZM0.133333 9.66667C0.0596952 9.66667 0 9.72636 0 9.8V12.2C0 12.2736 0.0596954 12.3333 0.133333 12.3333H6.66667V9.66667H0.133333ZM23.8667 12.3333C23.9403 12.3333 24 12.2736 24 12.2V9.8C24 9.72636 23.9403 9.66667 23.8667 9.66667H12V12.3333H23.8667ZM17.3333 4.33334H23.8667C23.9403 4.33334 24 4.27364 24 4.2V1.8C24 1.72636 23.9403 1.66667 23.8667 1.66667H17.3333V4.33334Z" fill="#262625"/>
<path d="M6.66667 13.4C6.66667 13.5473 6.78606 13.6667 6.93333 13.6667H11.7333C11.8806 13.6667 12 13.5473 12 13.4V8.6C12 8.45273 11.8806 8.33334 11.7333 8.33334H6.93333C6.78606 8.33334 6.66667 8.45273 6.66667 8.6V13.4Z" fill="#262625"/>
<path d="M14.6667 21.4C14.6667 21.5473 14.7861 21.6667 14.9333 21.6667H19.7333C19.8806 21.6667 20 21.5473 20 21.4V16.6C20 16.4527 19.8806 16.3333 19.7333 16.3333H14.9333C14.7861 16.3333 14.6667 16.4527 14.6667 16.6V21.4Z" fill="#262625"/>
<path d="M12 5.4C12 5.54728 12.1194 5.66667 12.2667 5.66667H17.0667C17.2139 5.66667 17.3333 5.54728 17.3333 5.4V0.600003C17.3333 0.452727 17.2139 0.333336 17.0667 0.333336H12.2667C12.1194 0.333336 12 0.452727 12 0.600003V5.4Z" fill="#262625"/>
</svg>
